<?xml version="1.0" standalone="no"?>
<!DOCTYPE svg PUBLIC "-//W3C//DTD SVG 20010904//EN"
 "http://www.w3.org/TR/2001/REC-SVG-20010904/DTD/svg10.dtd">
<svg version="1.0" xmlns="http://www.w3.org/2000/svg"
 width="300.000000pt" height="300.000000pt" viewBox="0 0 300.000000 300.000000"
 preserveAspectRatio="xMidYMid meet">
<metadata>
Created by potrace 1.10, written by Peter Selinger 2001-2011
</metadata>
<g transform="translate(0.000000,300.000000) scale(0.050000,-0.050000)"
fill="#000000" stroke="none">
<path d="M2969 4895 c-29 -93 -494 -1018 -680 -1355 -867 -1565 -1222 -2240
-1180 -2240 4 0 113 164 243 365 450 698 546 833 624 882 155 98 311 84 434
-38 115 -115 109 -79 281 -1659 38 -352 75 -687 82 -745 11 -90 19 -105 55
-105 53 0 51 164 -10 820 -62 678 -95 1136 -116 1598 l-19 427 -74 61 c-383
315 -86 982 422 950 501 -33 731 -644 358 -952 -82 -67 -70 24 -110 -794 -21
-436 -35 -608 -99 -1230 -21 -203 -44 -485 -51 -625 l-13 -255 49 0 c49 0 50
5 74 225 13 124 58 522 101 885 43 363 88 755 101 870 52 492 195 683 472 631
123 -23 227 -151 577 -708 182 -290 344 -546 360 -569 156 -223 -341 781 -790
1596 -372 676 -694 1279 -870 1631 -204 407 -200 401 -221 334z"/>
<path d="M2920 1300 l0 -1300 80 0 80 0 0 1300 0 1300 -80 0 -80 0 0 -1300z"/>
</g>
</svg>
